<?xml version="1.0" encoding="utf-8"?>
<!-- Generator: Adobe Illustrator 21.1.0, SVG Export Plug-In . SVG Version: 6.00 Build 0)  -->
<svg version="1.1" id="Layer_1" xmlns="http://www.w3.org/2000/svg" xmlns:xlink="http://www.w3.org/1999/xlink" x="0px" y="0px"
	 viewBox="0 0 162 200" style="enable-background:new 0 0 162 200;" xml:space="preserve">
<style type="text/css">
	.st0{fill:#FFFFFF;}
</style>
<g transform="translate(0.000000,200.000000) scale(0.100000,-0.100000)">
	<path class="st0" d="M776.1,1786.8c-8-9-11-43-9-96c2-66,7-85,21-94c12-8,22-8,35,0c14,9,17,27,17,105c0,94,0,94-26,97
		C800.1,1800.8,783.1,1794.8,776.1,1786.8z"/>
	<path class="st0" d="M1195.1,1596.8c-30-12-108-33-173-45c-186-36-407-23-574,35c-41,14-83,24-96,22c-29-4-35-44-10-64
		c26-20,200-74,239-74c18,0,35-4,38-8s-13-25-35-47c-54-52-122-157-170-262c-22-48-45-98-51-110c-18-36-15-94,5-107
		c27-17,47,3,67,65c22,72,102,230,146,291c52,70,118,124,175,142c46,15,55,16,104,1c64-18,130-75,187-158c45-67,109-200,129-268
		c21-74,65-104,88-60c31,57-148,411-245,484c-34,27-30,33,24,40c69,8,211,56,233,78c23,23,24,33,3,53
		C1260.1,1624.8,1262.1,1624.8,1195.1,1596.8z"/>
	<path class="st0" d="M575.1,911.8v-128l80-6c45-4,96-14,115-23c32-15,38-15,69,0c19,9,68,19,110,23l76,6v128v129h-63
		c-35,0-86-7-113-15c-42-13-54-13-91,0c-24,8-75,15-113,15h-70V911.8z M765.1,984.8c37-15,43-15,80,0c22,9,65,16,95,16h55v-89v-90
		l-47-5c-27-4-66-11-88-17c-50-13-60-13-110,0c-22,6-61,13-87,17l-48,5v90v89h55C700.1,1000.8,743.1,993.8,765.1,984.8z"/>
	<path class="st0" d="M337.1,758.8c-27-27-2-203,43-295c30-63,122-163,181-198c79-46,149-65,244-65c272,0,469,197,481,480
		c3,70,1,78-21,85c-33,11-47-11-53-81c-2-36-9-70-14-75s-171-8-399-7l-389,3l-6,73c-3,48-10,77-20,83
		C365.1,773.8,351.1,772.8,337.1,758.8z M1168.1,503.8c-14-39-85-123-125-151c-90-60-115-67-233-67c-100,0-116,3-170,28
		c-33,15-77,45-98,65c-43,41-97,115-97,131c0,8,112,11,365,11C1153.1,520.8,1174.1,519.8,1168.1,503.8z"/>
</g>
</svg>
